<svg width="1000" height="1000" viewBox="0 0 1000 1000" fill="none" xmlns="http://www.w3.org/2000/svg">
<g clip-path="url(#clip0)">
<rect width="1000" height="1000" fill="white"/>
<ellipse cx="478.025" cy="480.394" rx="716.291" ry="750.394" fill="#EEF5FA"/>
<ellipse cx="884.443" cy="461.833" rx="631.32" ry="661.377" fill="#DDECF6"/>
<mask id="mask0" mask-type="alpha" maskUnits="userSpaceOnUse" x="-239" y="-270" width="1434" height="1501">
<ellipse cx="478.025" cy="480.394" rx="716.291" ry="750.394" fill="white"/>
</mask>
<g mask="url(#mask0)">
<g opacity="0.46">
<path opacity="0.46" d="M1224.98 946.936L1196.27 916.117C1138 853.437 1110.29 763.138 1045.77 707.604C970.729 643.063 851.634 643.733 777.306 709.093C745.756 736.86 722.52 773.858 691.467 802.295C627.372 861.03 535.066 877.184 451.074 862.518C367.083 847.853 289.77 805.793 217.29 759.118C164.28 724.949 112.478 687.803 54.9201 662.865C-2.63776 637.926 -67.5857 625.867 -127.346 644.105C-251.415 682.145 -313.734 833.337 -430.982 890.434C-472.622 910.683 -519.663 916.489 -564.999 909.268V1017.36C-564.999 1124.93 -472.906 1244.41 -347.985 1250.59L473.174 1251.93C474.595 1251.93 476.016 1251.78 477.437 1251.48C497.902 1247.16 658.638 1210.68 769.277 1109.07C887.661 1000.39 1045.06 981.179 1045.06 981.179L1224.98 946.936Z" fill="url(#paint0_linear)"/>
</g>
<g opacity="0.46">
<path opacity="0.46" d="M1099.2 950.435C973.215 932.941 868.758 844.504 758.83 777.655C648.901 710.88 507.068 665.172 398.489 734.404C351.946 764.032 317.198 813.238 303.697 868.548C297.159 895.422 295.383 923.561 286.714 949.765C253.458 1050.71 127.115 1087.19 29.6931 1055.99C-67.7289 1024.8 -143.478 946.341 -218.942 874.653C-294.407 802.965 -380.46 732.394 -482.003 723.61C-510 721.153 -538.992 723.982 -565 734.478V1007.38C-565 1142.5 -460.472 1252 -331.5 1252H473.173H614.296L1131.68 964.728L1099.2 950.435Z" fill="url(#paint1_linear)"/>
</g>
<path opacity="0.64" d="M473.174 1251.93C473.174 1251.93 589.426 1223.71 683.58 1171.38C683.58 1171.38 729.768 1142.87 763.876 1113.84C763.876 1113.84 858.243 1022.72 1008.46 988.103L1185.33 954.455C1185.33 954.455 1294.9 926.762 1523 929.889C1523 929.889 1460.4 957.953 1365.68 1030.39C1365.68 1030.39 1272.8 1115.77 1153.42 1172.42C1153.42 1172.42 1089.4 1205.4 980.962 1236.14L923.12 1251.93H473.174Z" fill="url(#paint2_linear)"/>
</g>
<path d="M308.103 450.483L297.741 518.309L215.898 594.757C215.898 594.757 192.572 635.839 277.254 595.767C361.956 555.694 368.75 552.384 368.75 552.384L451.904 534.454L308.103 450.483Z" fill="#579EE3"/>
<path opacity="0.2" d="M449.088 535.056L368.771 552.362C368.771 552.362 248.94 612.514 229.485 613.309L350.497 539.807L420.839 516.31L449.088 535.056Z" fill="url(#paint3_linear)"/>
<path d="M332.439 472.346L304.105 528.994L215.92 594.735L297.741 518.288L308.104 450.483L332.439 472.346Z" fill="url(#paint4_linear)"/>
<path d="M802.304 639.408C802.304 639.408 817.245 612.084 816.041 599.981C814.837 587.877 274.676 297.954 274.676 297.954C274.676 297.954 157.231 231.525 89.1253 270.974C89.1253 270.974 69.304 280.089 95.9832 312.422C95.9832 312.422 119.674 345.4 421.916 526.565C421.938 526.565 648.872 647.965 802.304 639.408Z" fill="white" stroke="#6494D6" stroke-width="2"/>
<path opacity="0.16" d="M802.261 639.43C802.261 639.43 805.399 633.69 808.688 626.295C808.688 626.295 500.685 564.057 89.0818 270.974C89.0818 270.974 69.2606 280.089 95.9397 312.422C95.9397 312.422 119.631 345.4 421.873 526.565C421.873 526.565 648.807 647.965 802.261 639.43Z" fill="#CCCCCC"/>
<path opacity="0.1" d="M802.262 639.43C660.89 567.024 613.057 556.297 471.685 483.891C314.362 392.223 320.94 303.221 207.387 269.684C157.533 254.957 120.105 252.829 89.083 270.973C89.083 270.973 69.2618 280.089 95.9409 312.422C95.9409 312.422 119.632 345.4 421.874 526.565C421.874 526.565 648.808 647.964 802.262 639.43Z" fill="#BAD9EC"/>
<path d="M266.011 316.442C267.688 316.399 269.021 315.002 268.978 313.325L268.913 310.702C268.87 309.025 267.473 307.692 265.796 307.735C264.119 307.778 262.786 309.176 262.829 310.852L262.894 313.475C262.937 315.152 264.334 316.485 266.011 316.442Z" fill="#D96249" fill-opacity="0.55"/>
<path d="M277.298 322.676C278.975 322.634 280.308 321.236 280.265 319.559L280.2 316.937C280.157 315.26 278.76 313.927 277.083 313.97C275.406 314.013 274.073 315.41 274.116 317.087L274.181 319.71C274.224 321.387 275.621 322.719 277.298 322.676Z" fill="#D96249" fill-opacity="0.55"/>
<path d="M277.298 322.676C278.975 322.634 280.308 321.236 280.265 319.559L280.2 316.937C280.157 315.26 278.76 313.927 277.083 313.97C275.406 314.013 274.073 315.41 274.116 317.087L274.181 319.71C274.224 321.387 275.621 322.719 277.298 322.676Z" fill="#D96249" fill-opacity="0.55"/>
<path d="M288.584 328.911C290.261 328.868 291.594 327.471 291.551 325.794L291.486 323.171C291.443 321.494 290.046 320.161 288.369 320.204C286.692 320.247 285.359 321.645 285.402 323.321L285.467 325.944C285.531 327.621 286.907 328.954 288.584 328.911Z" fill="#D96249" fill-opacity="0.55"/>
<path d="M288.584 328.911C290.261 328.868 291.594 327.471 291.551 325.794L291.486 323.171C291.443 321.494 290.046 320.161 288.369 320.204C286.692 320.247 285.359 321.645 285.402 323.321L285.467 325.944C285.531 327.621 286.907 328.954 288.584 328.911Z" fill="#D96249" fill-opacity="0.55"/>
<path d="M299.893 335.145C301.569 335.102 302.902 333.705 302.859 332.028L302.795 329.405C302.752 327.728 301.354 326.395 299.678 326.438C298.001 326.481 296.668 327.879 296.711 329.556L296.775 332.178C296.818 333.855 298.216 335.188 299.893 335.145Z" fill="#D96249" fill-opacity="0.55"/>
<path d="M299.893 335.145C301.569 335.102 302.902 333.705 302.859 332.028L302.795 329.405C302.752 327.728 301.354 326.395 299.678 326.438C298.001 326.481 296.668 327.879 296.711 329.556L296.775 332.178C296.818 333.855 298.216 335.188 299.893 335.145Z" fill="#D96249" fill-opacity="0.55"/>
<path d="M311.178 341.38C312.855 341.337 314.187 339.939 314.144 338.263L314.08 335.64C314.037 333.963 312.64 332.63 310.963 332.673C309.286 332.716 307.953 334.113 307.996 335.79L308.061 338.413C308.104 340.09 309.501 341.423 311.178 341.38Z" fill="#D96249" fill-opacity="0.55"/>
<path d="M311.178 341.38C312.855 341.337 314.187 339.939 314.144 338.263L314.08 335.64C314.037 333.963 312.64 332.63 310.963 332.673C309.286 332.716 307.953 334.113 307.996 335.79L308.061 338.413C308.104 340.09 309.501 341.423 311.178 341.38Z" fill="#D96249" fill-opacity="0.55"/>
<path d="M322.464 347.614C324.141 347.571 325.474 346.174 325.431 344.497L325.366 341.874C325.323 340.198 323.926 338.865 322.249 338.908C320.572 338.951 319.239 340.348 319.282 342.025L319.347 344.648C319.411 346.324 320.787 347.657 322.464 347.614Z" fill="#D96249" fill-opacity="0.55"/>
<path d="M322.464 347.614C324.141 347.571 325.474 346.174 325.431 344.497L325.366 341.874C325.323 340.198 323.926 338.865 322.249 338.908C320.572 338.951 319.239 340.348 319.282 342.025L319.347 344.648C319.411 346.324 320.787 347.657 322.464 347.614Z" fill="#D96249" fill-opacity="0.55"/>
<path d="M333.772 353.849C335.449 353.806 336.782 352.408 336.739 350.732L336.675 348.109C336.632 346.432 335.234 345.099 333.557 345.142C331.881 345.185 330.548 346.583 330.591 348.259L330.655 350.882C330.698 352.559 332.096 353.892 333.772 353.849Z" fill="#D96249" fill-opacity="0.55"/>
<path d="M333.772 353.849C335.449 353.806 336.782 352.408 336.739 350.732L336.675 348.109C336.632 346.432 335.234 345.099 333.557 345.142C331.881 345.185 330.548 346.583 330.591 348.259L330.655 350.882C330.698 352.559 332.096 353.892 333.772 353.849Z" fill="#D96249" fill-opacity="0.55"/>
<path d="M345.06 360.083C346.736 360.04 348.069 358.643 348.026 356.966L347.962 354.343C347.919 352.666 346.521 351.334 344.845 351.376C343.168 351.419 341.835 352.817 341.878 354.494L341.942 357.117C341.985 358.793 343.383 360.126 345.06 360.083Z" fill="#D96249" fill-opacity="0.55"/>
<path d="M345.06 360.083C346.736 360.04 348.069 358.643 348.026 356.966L347.962 354.343C347.919 352.666 346.521 351.334 344.845 351.376C343.168 351.419 341.835 352.817 341.878 354.494L341.942 357.117C341.985 358.793 343.383 360.126 345.06 360.083Z" fill="#D96249" fill-opacity="0.55"/>
<path d="M356.346 366.317C358.023 366.274 359.355 364.877 359.312 363.2L359.248 360.577C359.205 358.901 357.808 357.568 356.131 357.611C354.454 357.654 353.121 359.051 353.164 360.728L353.228 363.351C353.293 365.028 354.669 366.36 356.346 366.317Z" fill="#D96249" fill-opacity="0.55"/>
<path d="M356.346 366.317C358.023 366.274 359.355 364.877 359.312 363.2L359.248 360.577C359.205 358.901 357.808 357.568 356.131 357.611C354.454 357.654 353.121 359.051 353.164 360.728L353.228 363.351C353.293 365.028 354.669 366.36 356.346 366.317Z" fill="#D96249" fill-opacity="0.55"/>
<path d="M367.654 372.552C369.331 372.509 370.664 371.112 370.621 369.435L370.557 366.812C370.514 365.135 369.116 363.802 367.439 363.845C365.763 363.888 364.43 365.286 364.473 366.963L364.537 369.585C364.58 371.262 365.978 372.595 367.654 372.552Z" fill="#D96249" fill-opacity="0.55"/>
<path d="M367.654 372.552C369.331 372.509 370.664 371.112 370.621 369.435L370.557 366.812C370.514 365.135 369.116 363.802 367.439 363.845C365.763 363.888 364.43 365.286 364.473 366.963L364.537 369.585C364.58 371.262 365.978 372.595 367.654 372.552Z" fill="#D96249" fill-opacity="0.55"/>
<path d="M378.941 378.786C380.618 378.743 381.951 377.346 381.908 375.669L381.844 373.046C381.801 371.37 380.403 370.037 378.726 370.08C377.05 370.123 375.717 371.52 375.76 373.197L375.824 375.82C375.867 377.497 377.265 378.829 378.941 378.786Z" fill="#D96249" fill-opacity="0.55"/>
<path d="M378.941 378.786C380.618 378.743 381.951 377.346 381.908 375.669L381.844 373.046C381.801 371.37 380.403 370.037 378.726 370.08C377.05 370.123 375.717 371.52 375.76 373.197L375.824 375.82C375.867 377.497 377.265 378.829 378.941 378.786Z" fill="#D96249" fill-opacity="0.55"/>
<path d="M390.227 385.021C391.903 384.978 393.236 383.581 393.193 381.904L393.129 379.281C393.086 377.604 391.688 376.271 390.012 376.314C388.335 376.357 387.002 377.755 387.045 379.432L387.109 382.054C387.152 383.731 388.55 385.064 390.227 385.021Z" fill="#D96249" fill-opacity="0.55"/>
<path d="M390.227 385.021C391.903 384.978 393.236 383.581 393.193 381.904L393.129 379.281C393.086 377.604 391.688 376.271 390.012 376.314C388.335 376.357 387.002 377.755 387.045 379.432L387.109 382.054C387.152 383.731 388.55 385.064 390.227 385.021Z" fill="#D96249" fill-opacity="0.55"/>
<path d="M401.534 391.255C403.211 391.212 404.544 389.815 404.501 388.138L404.436 385.515C404.393 383.839 402.996 382.506 401.319 382.549C399.642 382.592 398.31 383.989 398.353 385.666L398.417 388.289C398.46 389.965 399.836 391.298 401.534 391.255Z" fill="#D96249" fill-opacity="0.55"/>
<path d="M401.534 391.255C403.211 391.212 404.544 389.815 404.501 388.138L404.436 385.515C404.393 383.839 402.996 382.506 401.319 382.549C399.642 382.592 398.31 383.989 398.353 385.666L398.417 388.289C398.46 389.965 399.836 391.298 401.534 391.255Z" fill="#D96249" fill-opacity="0.55"/>
<path d="M412.82 397.49C414.497 397.447 415.83 396.049 415.787 394.373L415.723 391.75C415.68 390.073 414.282 388.74 412.605 388.783C410.929 388.826 409.596 390.223 409.639 391.9L409.703 394.523C409.746 396.2 411.143 397.511 412.82 397.49Z" fill="#D96249" fill-opacity="0.55"/>
<path d="M412.82 397.49C414.497 397.447 415.83 396.049 415.787 394.373L415.723 391.75C415.68 390.073 414.282 388.74 412.605 388.783C410.929 388.826 409.596 390.223 409.639 391.9L409.703 394.523C409.746 396.2 411.143 397.511 412.82 397.49Z" fill="#D96249" fill-opacity="0.55"/>
<path d="M424.108 403.724C425.785 403.681 427.118 402.284 427.075 400.607L427.011 397.984C426.968 396.308 425.57 394.975 423.893 395.018C422.217 395.061 420.884 396.458 420.927 398.135L420.991 400.758C421.034 402.434 422.432 403.746 424.108 403.724Z" fill="#D96249" fill-opacity="0.55"/>
<path d="M424.108 403.724C425.785 403.681 427.118 402.284 427.075 400.607L427.011 397.984C426.968 396.308 425.57 394.975 423.893 395.018C422.217 395.061 420.884 396.458 420.927 398.135L420.991 400.758C421.034 402.434 422.432 403.746 424.108 403.724Z" fill="#D96249" fill-opacity="0.55"/>
<path d="M435.395 409.959C437.071 409.916 438.404 408.518 438.361 406.842L438.297 404.219C438.254 402.542 436.856 401.209 435.18 401.252C433.503 401.295 432.17 402.692 432.213 404.369L432.277 406.992C432.342 408.669 433.718 409.98 435.395 409.959Z" fill="#D96249" fill-opacity="0.55"/>
<path d="M435.395 409.959C437.071 409.916 438.404 408.518 438.361 406.842L438.297 404.219C438.254 402.542 436.856 401.209 435.18 401.252C433.503 401.295 432.17 402.692 432.213 404.369L432.277 406.992C432.342 408.669 433.718 409.98 435.395 409.959Z" fill="#D96249" fill-opacity="0.55"/>
<path d="M446.703 416.193C448.38 416.15 449.713 414.753 449.67 413.076L449.605 410.453C449.562 408.776 448.165 407.444 446.488 407.487C444.811 407.53 443.478 408.927 443.521 410.604L443.586 413.227C443.629 414.903 445.026 416.215 446.703 416.193Z" fill="#D96249" fill-opacity="0.55"/>
<path d="M446.703 416.193C448.38 416.15 449.713 414.753 449.67 413.076L449.605 410.453C449.562 408.776 448.165 407.444 446.488 407.487C444.811 407.53 443.478 408.927 443.521 410.604L443.586 413.227C443.629 414.903 445.026 416.215 446.703 416.193Z" fill="#D96249" fill-opacity="0.55"/>
<path d="M457.988 422.406C459.665 422.363 460.998 420.966 460.955 419.289L460.891 416.666C460.848 414.989 459.45 413.656 457.773 413.699C456.096 413.742 454.764 415.14 454.807 416.817L454.871 419.439C454.914 421.116 456.311 422.449 457.988 422.406Z" fill="#D96249" fill-opacity="0.55"/>
<path d="M457.988 422.406C459.665 422.363 460.998 420.966 460.955 419.289L460.891 416.666C460.848 414.989 459.45 413.656 457.773 413.699C456.096 413.742 454.764 415.14 454.807 416.817L454.871 419.439C454.914 421.116 456.311 422.449 457.988 422.406Z" fill="#D96249" fill-opacity="0.55"/>
<path d="M469.275 428.64C470.952 428.597 472.285 427.2 472.242 425.523L472.178 422.9C472.135 421.224 470.737 419.891 469.06 419.934C467.384 419.977 466.051 421.374 466.094 423.051L466.18 425.674C466.223 427.351 467.599 428.683 469.275 428.64Z" fill="#D96249" fill-opacity="0.55"/>
<path d="M469.275 428.64C470.952 428.597 472.285 427.2 472.242 425.523L472.178 422.9C472.135 421.224 470.737 419.891 469.06 419.934C467.384 419.977 466.051 421.374 466.094 423.051L466.18 425.674C466.223 427.351 467.599 428.683 469.275 428.64Z" fill="#D96249" fill-opacity="0.55"/>
<path d="M480.583 434.875C482.26 434.832 483.593 433.435 483.55 431.758L483.485 429.135C483.442 427.458 482.045 426.125 480.368 426.168C478.691 426.211 477.358 427.609 477.401 429.285L477.466 431.908C477.509 433.585 478.906 434.918 480.583 434.875Z" fill="#D96249" fill-opacity="0.55"/>
<path d="M480.583 434.875C482.26 434.832 483.593 433.435 483.55 431.758L483.485 429.135C483.442 427.458 482.045 426.125 480.368 426.168C478.691 426.211 477.358 427.609 477.401 429.285L477.466 431.908C477.509 433.585 478.906 434.918 480.583 434.875Z" fill="#D96249" fill-opacity="0.55"/>
<path d="M491.871 441.11C493.548 441.067 494.881 439.669 494.838 437.992L494.773 435.37C494.73 433.693 493.333 432.36 491.656 432.403C489.979 432.446 488.646 433.843 488.689 435.52L488.754 438.143C488.797 439.82 490.194 441.153 491.871 441.11Z" fill="#D96249" fill-opacity="0.55"/>
<path d="M491.871 441.11C493.548 441.067 494.881 439.669 494.838 437.992L494.773 435.37C494.73 433.693 493.333 432.36 491.656 432.403C489.979 432.446 488.646 433.843 488.689 435.52L488.754 438.143C488.797 439.82 490.194 441.153 491.871 441.11Z" fill="#D96249" fill-opacity="0.55"/>
<path d="M503.158 447.344C504.835 447.301 506.168 445.904 506.125 444.227L506.06 441.604C506.017 439.927 504.62 438.594 502.943 438.637C501.266 438.68 499.934 440.078 499.977 441.755L500.041 444.377C500.105 446.054 501.481 447.387 503.158 447.344Z" fill="#D96249" fill-opacity="0.55"/>
<path d="M503.158 447.344C504.835 447.301 506.168 445.904 506.125 444.227L506.06 441.604C506.017 439.927 504.62 438.594 502.943 438.637C501.266 438.68 499.934 440.078 499.977 441.755L500.041 444.377C500.105 446.054 501.481 447.387 503.158 447.344Z" fill="#D96249" fill-opacity="0.55"/>
<path d="M514.465 453.579C516.142 453.536 517.475 452.138 517.432 450.461L517.367 447.839C517.324 446.162 515.927 444.829 514.25 444.872C512.573 444.915 511.24 446.312 511.283 447.989L511.348 450.612C511.391 452.289 512.788 453.622 514.465 453.579Z" fill="#D96249" fill-opacity="0.55"/>
<path d="M514.465 453.579C516.142 453.536 517.475 452.138 517.432 450.461L517.367 447.839C517.324 446.162 515.927 444.829 514.25 444.872C512.573 444.915 511.24 446.312 511.283 447.989L511.348 450.612C511.391 452.289 512.788 453.622 514.465 453.579Z" fill="#D96249" fill-opacity="0.55"/>
<path d="M525.751 459.813C527.428 459.77 528.761 458.373 528.718 456.696L528.653 454.073C528.61 452.396 527.213 451.063 525.536 451.106C523.859 451.149 522.526 452.547 522.569 454.224L522.634 456.846C522.677 458.523 524.074 459.856 525.751 459.813Z" fill="#D96249" fill-opacity="0.55"/>
<path d="M525.751 459.813C527.428 459.77 528.761 458.373 528.718 456.696L528.653 454.073C528.61 452.396 527.213 451.063 525.536 451.106C523.859 451.149 522.526 452.547 522.569 454.224L522.634 456.846C522.677 458.523 524.074 459.856 525.751 459.813Z" fill="#D96249" fill-opacity="0.55"/>
<path d="M537.039 466.047C538.716 466.004 540.049 464.607 540.006 462.93L539.941 460.307C539.898 458.63 538.501 457.298 536.824 457.341C535.147 457.384 533.814 458.781 533.857 460.458L533.922 463.081C533.965 464.757 535.362 466.09 537.039 466.047Z" fill="#D96249" fill-opacity="0.55"/>
<path d="M537.039 466.047C538.716 466.004 540.049 464.607 540.006 462.93L539.941 460.307C539.898 458.63 538.501 457.298 536.824 457.341C535.147 457.384 533.814 458.781 533.857 460.458L533.922 463.081C533.965 464.757 535.362 466.09 537.039 466.047Z" fill="#D96249" fill-opacity="0.55"/>
<path d="M548.346 472.282C550.023 472.239 551.355 470.842 551.312 469.165L551.248 466.542C551.205 464.865 549.808 463.532 548.131 463.575C546.454 463.618 545.121 465.016 545.164 466.692L545.228 469.315C545.271 470.992 546.669 472.325 548.346 472.282Z" fill="#D96249" fill-opacity="0.55"/>
<path d="M548.346 472.282C550.023 472.239 551.355 470.842 551.312 469.165L551.248 466.542C551.205 464.865 549.808 463.532 548.131 463.575C546.454 463.618 545.121 465.016 545.164 466.692L545.228 469.315C545.271 470.992 546.669 472.325 548.346 472.282Z" fill="#D96249" fill-opacity="0.55"/>
<path d="M559.633 478.516C561.31 478.473 562.643 477.076 562.6 475.399L562.535 472.776C562.492 471.099 561.095 469.766 559.418 469.809C557.741 469.852 556.408 471.25 556.451 472.927L556.516 475.549C556.559 477.226 557.956 478.559 559.633 478.516Z" fill="#D96249" fill-opacity="0.55"/>
<path d="M559.633 478.516C561.31 478.473 562.643 477.076 562.6 475.399L562.535 472.776C562.492 471.099 561.095 469.766 559.418 469.809C557.741 469.852 556.408 471.25 556.451 472.927L556.516 475.549C556.559 477.226 557.956 478.559 559.633 478.516Z" fill="#D96249" fill-opacity="0.55"/>
<path d="M570.919 484.751C572.596 484.708 573.929 483.31 573.886 481.634L573.821 479.011C573.778 477.334 572.381 476.001 570.704 476.044C569.027 476.087 567.694 477.484 567.737 479.161L567.802 481.784C567.845 483.461 569.242 484.794 570.919 484.751Z" fill="#D96249" fill-opacity="0.55"/>
<path d="M570.919 484.751C572.596 484.708 573.929 483.31 573.886 481.634L573.821 479.011C573.778 477.334 572.381 476.001 570.704 476.044C569.027 476.087 567.694 477.484 567.737 479.161L567.802 481.784C567.845 483.461 569.242 484.794 570.919 484.751Z" fill="#D96249" fill-opacity="0.55"/>
<path d="M582.205 490.985C583.882 490.942 585.215 489.545 585.172 487.868L585.107 485.245C585.064 483.568 583.667 482.235 581.99 482.278C580.313 482.321 578.98 483.719 579.023 485.396L579.088 488.018C579.152 489.695 580.528 491.028 582.205 490.985Z" fill="#D96249" fill-opacity="0.55"/>
<path d="M582.205 490.985C583.882 490.942 585.215 489.545 585.172 487.868L585.107 485.245C585.064 483.568 583.667 482.235 581.99 482.278C580.313 482.321 578.98 483.719 579.023 485.396L579.088 488.018C579.152 489.695 580.528 491.028 582.205 490.985Z" fill="#D96249" fill-opacity="0.55"/>
<path d="M593.514 497.219C595.191 497.176 596.523 495.779 596.48 494.102L596.416 491.479C596.373 489.803 594.976 488.47 593.299 488.513C591.622 488.556 590.289 489.953 590.332 491.63L590.396 494.253C590.439 495.93 591.837 497.262 593.514 497.219Z" fill="#D96249" fill-opacity="0.55"/>
<path d="M593.514 497.219C595.191 497.176 596.523 495.779 596.48 494.102L596.416 491.479C596.373 489.803 594.976 488.47 593.299 488.513C591.622 488.556 590.289 489.953 590.332 491.63L590.396 494.253C590.439 495.93 591.837 497.262 593.514 497.219Z" fill="#D96249" fill-opacity="0.55"/>
<path d="M604.8 503.454C606.477 503.411 607.81 502.014 607.767 500.337L607.702 497.714C607.659 496.037 606.262 494.704 604.585 494.747C602.908 494.79 601.575 496.188 601.618 497.865L601.683 500.487C601.726 502.164 603.123 503.497 604.8 503.454Z" fill="#D96249" fill-opacity="0.55"/>
<path d="M604.8 503.454C606.477 503.411 607.81 502.014 607.767 500.337L607.702 497.714C607.659 496.037 606.262 494.704 604.585 494.747C602.908 494.79 601.575 496.188 601.618 497.865L601.683 500.487C601.726 502.164 603.123 503.497 604.8 503.454Z" fill="#D96249" fill-opacity="0.55"/>
<path d="M616.086 509.689C617.763 509.646 619.096 508.248 619.053 506.571L618.988 503.949C618.945 502.272 617.548 500.939 615.871 500.982C614.194 501.025 612.861 502.422 612.904 504.099L612.969 506.722C613.033 508.399 614.409 509.732 616.086 509.689Z" fill="#D96249" fill-opacity="0.55"/>
<path d="M616.086 509.689C617.763 509.646 619.096 508.248 619.053 506.571L618.988 503.949C618.945 502.272 617.548 500.939 615.871 500.982C614.194 501.025 612.861 502.422 612.904 504.099L612.969 506.722C613.033 508.399 614.409 509.732 616.086 509.689Z" fill="#D96249" fill-opacity="0.55"/>
<path d="M627.395 515.923C629.071 515.88 630.404 514.483 630.361 512.806L630.297 510.183C630.254 508.506 628.856 507.173 627.18 507.216C625.503 507.259 624.17 508.657 624.213 510.333L624.277 512.956C624.32 514.633 625.718 515.966 627.395 515.923Z" fill="#D96249" fill-opacity="0.55"/>
<path d="M627.395 515.923C629.071 515.88 630.404 514.483 630.361 512.806L630.297 510.183C630.254 508.506 628.856 507.173 627.18 507.216C625.503 507.259 624.17 508.657 624.213 510.333L624.277 512.956C624.32 514.633 625.718 515.966 627.395 515.923Z" fill="#D96249" fill-opacity="0.55"/>
<path d="M638.681 522.157C640.358 522.114 641.69 520.717 641.647 519.04L641.583 516.417C641.54 514.74 640.143 513.408 638.466 513.451C636.789 513.494 635.456 514.891 635.499 516.568L635.563 519.191C635.606 520.867 637.004 522.179 638.681 522.157Z" fill="#D96249" fill-opacity="0.55"/>
<path d="M638.681 522.157C640.358 522.114 641.69 520.717 641.647 519.04L641.583 516.417C641.54 514.74 640.143 513.408 638.466 513.451C636.789 513.494 635.456 514.891 635.499 516.568L635.563 519.191C635.606 520.867 637.004 522.179 638.681 522.157Z" fill="#D96249" fill-opacity="0.55"/>
<path d="M649.968 528.392C651.645 528.349 652.978 526.951 652.935 525.275L652.87 522.652C652.827 520.975 651.43 519.642 649.753 519.685C648.076 519.728 646.743 521.125 646.786 522.802L646.851 525.425C646.915 527.102 648.291 528.413 649.968 528.392Z" fill="#D96249" fill-opacity="0.55"/>
<path d="M226.176 289.29L222.414 295.739C222.414 295.739 168.776 263.621 152.072 258.44C152.072 258.44 170.689 260.31 182.427 263.148C194.144 265.986 226.176 289.29 226.176 289.29Z" fill="#D96249" fill-opacity="0.55"/>
<path d="M649.514 502.035C649.514 502.035 703.862 524.888 733.723 497.413C763.583 469.938 808.901 433.564 808.901 433.564C808.901 433.564 837.3 418.407 846.975 447.344L797.636 586.738L649.514 502.035Z" fill="url(#paint5_linear)"/>
<path d="M649.708 502.121C649.708 502.121 704.055 524.974 733.937 497.499C763.82 470.046 809.116 433.649 809.116 433.649C809.116 433.649 823.133 426.168 834.828 431.758C839.773 434.122 748.234 558.468 748.234 558.468L649.708 502.121Z" fill="url(#paint6_linear)"/>
<path d="M863.184 388.289C863.184 388.289 902.461 352.752 804.236 369.714C706.011 386.676 380.401 423.825 380.401 423.825C380.401 423.825 347.487 451.493 543.055 490.362L591.663 470.089L863.184 388.289Z" fill="url(#paint7_linear)"/>
<path d="M804.236 369.779C706.011 386.741 380.401 423.889 380.401 423.889C380.401 423.889 369.845 432.768 396.202 447.516C416.367 458.802 902.461 352.817 804.236 369.779Z" fill="url(#paint8_linear)"/>
<path opacity="0.2" d="M863.184 388.288C863.184 388.288 874.858 377.711 869.548 370.853C865.119 365.135 486.15 477.871 486.15 477.871C502.553 481.87 521.407 486.04 543.056 490.34L591.663 470.067L863.184 388.288Z" fill="url(#paint9_linear)"/>
<path d="M758.016 638.634C758.016 638.634 703.195 667.678 693.758 661.809C684.342 655.962 681.74 648.394 693.629 628.853L696.187 624.854L764.121 633.174L758.016 638.634Z" fill="url(#paint10_linear)"/>
<path d="M759.39 564.272L939.265 546.278C939.265 546.278 972.888 542.71 979.273 548.729C983.959 553.158 982.992 560.424 973.06 563.004L814.769 608.623C814.769 608.623 744.169 571.926 759.39 564.272Z" fill="url(#paint11_linear)"/>
<path d="M981.618 552.255C983.015 556.34 980.672 561.048 973.062 563.004L814.771 608.623C814.771 608.623 803.506 602.776 790.951 595.251C790.951 595.251 981.188 550.987 981.618 552.255Z" fill="url(#paint12_linear)"/>
<path d="M520.44 447.172C520.44 447.172 528.372 429.436 519.601 418.193C512.765 409.421 457.73 380.528 457.73 380.528C457.73 380.528 438.403 370.746 422.043 390.718C405.683 410.711 423.247 428.318 423.247 428.318C423.247 428.318 498.512 487.589 520.44 447.172Z" fill="white"/>
<path opacity="0.16" d="M520.441 447.172L422.044 390.74C405.684 410.733 423.248 428.34 423.248 428.34C423.248 428.34 498.513 487.589 520.441 447.172Z" fill="#CCCCCC"/>
<path d="M423.269 428.34C423.269 428.34 405.705 410.733 422.065 390.74C438.425 370.746 457.752 380.549 457.752 380.549C457.752 380.549 468.265 418.752 423.269 428.34Z" fill="#327BC1"/>
<path d="M457.73 388.976C457.73 388.976 444.036 379.302 430.062 394.308C416.089 409.314 421.205 418.02 424.903 424.341C424.903 424.341 452.27 424.534 457.73 388.976Z" fill="#D96249"/>
<path d="M451.432 378.615C451.432 378.615 455.022 379.173 457.731 380.549C457.752 380.635 460.999 383.086 461.343 386.547C462.417 397.232 459.064 421.181 427.634 429.221C426.537 429.501 424.774 429.501 423.248 428.34C423.248 428.34 419.787 425.201 417.078 418.579C417.207 418.644 418.776 423.202 423.097 423.503C428.966 423.911 439.758 420.471 447.949 409.421C453.99 401.274 457.193 391.986 456.849 386.225C456.484 379.99 451.432 378.615 451.432 378.615Z" fill="#81C6F0"/>
<path d="M520.441 447.43C520.441 447.43 528.373 429.694 519.602 418.451C518.678 417.29 515.69 414.817 514.529 413.979C521.473 457.9 478.261 458.717 478.261 458.717C500.275 465.789 513.862 459.555 520.441 447.43Z" fill="#63A0DB"/>
<path d="M304.341 546.407C304.341 546.407 311.285 530.907 303.61 521.104C297.634 513.451 249.564 488.212 249.564 488.212C249.564 488.212 232.688 479.656 218.392 497.112C204.095 514.569 219.445 529.961 219.445 529.961C219.445 529.961 285.186 581.707 304.341 546.407Z" fill="white"/>
<path opacity="0.16" d="M304.344 546.407L218.416 497.133C204.141 514.59 219.469 529.982 219.469 529.982C219.469 529.982 285.189 581.707 304.344 546.407Z" fill="#CCCCCC"/>
<path d="M219.467 529.961C219.467 529.961 204.117 514.569 218.414 497.112C232.71 479.656 249.586 488.212 249.586 488.212C249.586 488.212 258.766 521.598 219.467 529.961Z" fill="#327BC1"/>
<path d="M249.566 495.607C249.566 495.607 237.592 487.159 225.403 500.251C213.213 513.343 217.663 520.954 220.888 526.479C220.888 526.457 244.815 526.651 249.566 495.607Z" fill="#D96249"/>
<path d="M244.063 486.535C244.063 486.535 247.202 487.029 249.567 488.212C249.588 488.276 252.426 490.426 252.727 493.457C253.673 502.787 250.749 523.705 223.296 530.735C222.328 530.971 220.802 530.993 219.469 529.961C219.469 529.961 216.46 527.231 214.095 521.448C214.202 521.491 215.578 525.489 219.34 525.747C224.478 526.091 233.894 523.103 241.032 513.451C246.299 506.335 249.115 498.23 248.793 493.199C248.47 487.739 244.063 486.535 244.063 486.535Z" fill="#63A0DB"/>
<path d="M304.342 546.644C304.342 546.644 311.286 531.143 303.611 521.34C302.816 520.308 300.193 518.18 299.183 517.428C305.245 555.78 267.516 556.511 267.516 556.511C286.735 562.681 298.581 557.221 304.342 546.644Z" fill="#63A0DB"/>
</g>
<defs>
<linearGradient id="paint0_linear" x1="340.744" y1="768.913" x2="255.881" y2="1914.51" gradientUnits="userSpaceOnUse">
<stop stop-color="#FFBBB0"/>
<stop offset="1" stop-color="#C96E5A"/>
</linearGradient>
<linearGradient id="paint1_linear" x1="-241.287" y1="873.118" x2="2044.71" y2="1495.5" gradientUnits="userSpaceOnUse">
<stop stop-color="#FFE8DA"/>
<stop offset="1" stop-color="#D96249"/>
</linearGradient>
<linearGradient id="paint2_linear" x1="473.18" y1="1090.8" x2="1523.11" y2="1090.8" gradientUnits="userSpaceOnUse">
<stop stop-color="#66B4FF"/>
<stop offset="0.0001" stop-color="#D96249"/>
<stop offset="1" stop-color="#C9DEF2"/>
</linearGradient>
<linearGradient id="paint3_linear" x1="532.817" y1="380.647" x2="260.808" y2="652.656" gradientUnits="userSpaceOnUse">
<stop stop-color="#63A0DB"/>
<stop offset="1" stop-color="#0465C4"/>
</linearGradient>
<linearGradient id="paint4_linear" x1="350.536" y1="491.304" x2="190.049" y2="548.064" gradientUnits="userSpaceOnUse">
<stop stop-color="#63A0DB"/>
<stop offset="1" stop-color="#6D9CF6"/>
</linearGradient>
<linearGradient id="paint5_linear" x1="831.888" y1="349.413" x2="674.444" y2="632.846" gradientUnits="userSpaceOnUse">
<stop stop-color="#A3D2FF"/>
<stop offset="1" stop-color="#5AA0E3"/>
</linearGradient>
<linearGradient id="paint6_linear" x1="842.918" y1="286.754" x2="686.239" y2="568.812" gradientUnits="userSpaceOnUse">
<stop stop-color="#C1D9F1"/>
<stop offset="1" stop-color="#549DE4"/>
</linearGradient>
<linearGradient id="paint7_linear" x1="874.416" y1="409.425" x2="381.254" y2="458.742" gradientUnits="userSpaceOnUse">
<stop stop-color="#68A7E0"/>
<stop offset="1" stop-color="#63A0DB"/>
</linearGradient>
<linearGradient id="paint8_linear" x1="378.531" y1="431.513" x2="819.264" y2="387.44" gradientUnits="userSpaceOnUse">
<stop stop-color="#74ABE0"/>
<stop offset="1" stop-color="#2D8CE8"/>
</linearGradient>
<linearGradient id="paint9_linear" x1="870.933" y1="430.496" x2="486.143" y2="430.496" gradientUnits="userSpaceOnUse">
<stop stop-color="#D5DEFF"/>
<stop offset="1" stop-color="#281B9A"/>
</linearGradient>
<linearGradient id="paint10_linear" x1="630.291" y1="693.313" x2="756.906" y2="612.805" gradientUnits="userSpaceOnUse">
<stop stop-color="#B9E4FF"/>
<stop offset="1" stop-color="#63A0DB"/>
</linearGradient>
<linearGradient id="paint11_linear" x1="1030.99" y1="496.419" x2="744.738" y2="613.39" gradientUnits="userSpaceOnUse">
<stop stop-color="#BAD9EC"/>
<stop offset="1" stop-color="#63A0DB"/>
</linearGradient>
<linearGradient id="paint12_linear" x1="787.801" y1="696.661" x2="964.429" y2="480.782" gradientUnits="userSpaceOnUse">
<stop stop-color="#63A0DB"/>
<stop offset="1" stop-color="#5DA3E7"/>
</linearGradient>
<clipPath id="clip0">
<rect width="1000" height="1000" fill="white"/>
</clipPath>
</defs>
</svg>
